<svg width="58" height="30" viewBox="0 0 58 30" fill="none" xmlns="http://www.w3.org/2000/svg">
<path fill-rule="evenodd" clip-rule="evenodd" d="M50.6923 1H7C3.68629 1 1 3.68629 1 7V23C1 26.3137 3.6863 29 7.00001 29H50.6923C54.006 29 56.6923 26.3137 56.6923 23V7C56.6923 3.68629 54.006 1 50.6923 1ZM7 0C3.13401 0 0 3.13401 0 7V23C0 26.866 3.13401 30 7.00001 30H50.6923C54.5583 30 57.6923 26.866 57.6923 23V7C57.6923 3.13401 54.5583 0 50.6923 0H7Z" fill="white" fill-opacity="0.5"/>
<path d="M37.181 19.6426V18.0915L40.8053 14.7356C41.1135 14.4374 41.372 14.1689 41.5808 13.9303C41.793 13.6916 41.9537 13.458 42.0631 13.2293C42.1725 12.9972 42.2271 12.747 42.2271 12.4785C42.2271 12.1803 42.1592 11.9234 42.0233 11.708C41.8874 11.4892 41.7018 11.3218 41.4665 11.2058C41.2312 11.0865 40.9644 11.0268 40.6661 11.0268C40.3545 11.0268 40.0827 11.0898 39.8507 11.2158C39.6187 11.3417 39.4397 11.5223 39.3138 11.7577C39.1878 11.993 39.1249 12.2731 39.1249 12.5979H37.0815C37.0815 11.9317 37.2323 11.3533 37.534 10.8628C37.8356 10.3722 38.2582 9.99275 38.8017 9.72429C39.3453 9.45582 39.9717 9.32159 40.681 9.32159C41.4101 9.32159 42.0448 9.45085 42.5851 9.70937C43.1287 9.96458 43.5512 10.3192 43.8528 10.7733C44.1545 11.2274 44.3053 11.7477 44.3053 12.3344C44.3053 12.7188 44.229 13.0983 44.0766 13.4729C43.9274 13.8474 43.6606 14.2633 43.2761 14.7207C42.8917 15.1748 42.3498 15.72 41.6504 16.3564L40.1639 17.8131V17.8827H44.4395V19.6426H37.181Z" fill="white"/>
<path d="M31.716 19.7818C30.9735 19.7818 30.3123 19.6542 29.7323 19.399C29.1556 19.1405 28.6999 18.7858 28.3651 18.3351C28.0337 17.881 27.863 17.3573 27.853 16.7641H30.0206C30.0339 17.0126 30.1151 17.2314 30.2642 17.4203C30.4167 17.6059 30.6189 17.7501 30.8708 17.8528C31.1227 17.9556 31.4061 18.007 31.7209 18.007C32.049 18.007 32.3391 17.949 32.591 17.833C32.8428 17.7169 33.0401 17.5562 33.1826 17.3507C33.3251 17.1452 33.3964 16.9082 33.3964 16.6398C33.3964 16.368 33.3201 16.1277 33.1677 15.9189C33.0185 15.7068 32.8031 15.541 32.5214 15.4217C32.2429 15.3024 31.9115 15.2428 31.527 15.2428H30.5775V13.6618H31.527C31.8518 13.6618 32.1385 13.6054 32.3871 13.4928C32.639 13.3801 32.8346 13.2243 32.9738 13.0254C33.113 12.8232 33.1826 12.5879 33.1826 12.3195C33.1826 12.0642 33.1213 11.8405 32.9986 11.6483C32.8793 11.4527 32.7103 11.3003 32.4915 11.1909C32.2761 11.0815 32.0242 11.0268 31.7358 11.0268C31.4442 11.0268 31.1774 11.0799 30.9354 11.1859C30.6935 11.2887 30.4996 11.4362 30.3537 11.6284C30.2079 11.8206 30.13 12.046 30.1201 12.3045H28.0569C28.0668 11.7179 28.2342 11.2008 28.559 10.7534C28.8838 10.306 29.3213 9.95629 29.8715 9.7044C30.425 9.44919 31.0498 9.32159 31.7458 9.32159C32.4484 9.32159 33.0633 9.44919 33.5902 9.7044C34.1172 9.95961 34.5266 10.3043 34.8182 10.7385C35.1132 11.1694 35.259 11.6533 35.2557 12.1902C35.259 12.7603 35.0817 13.2359 34.7238 13.617C34.3691 13.9982 33.9068 14.2401 33.3367 14.3429V14.4224C34.0857 14.5186 34.6558 14.7787 35.0469 15.203C35.4413 15.6239 35.6369 16.1509 35.6336 16.7839C35.6369 17.364 35.4695 17.8794 35.1314 18.3301C34.7967 18.7809 34.3343 19.1355 33.7444 19.394C33.1544 19.6526 32.4783 19.7818 31.716 19.7818Z" fill="white"/>
</svg>
