<svg width="57" height="9" viewBox="0 0 57 9" fill="none" xmlns="http://www.w3.org/2000/svg">
<path d="M56.672 2.30769V3.67521H52.719V2.30769H56.672ZM53.6164 0.735044H55.4369V6.8547C55.4369 7.02279 55.4626 7.15385 55.5138 7.24786C55.5651 7.33903 55.6363 7.40313 55.7275 7.44017C55.8215 7.47721 55.9298 7.49573 56.0523 7.49573C56.1378 7.49573 56.2232 7.4886 56.3087 7.47436C56.3942 7.45727 56.4597 7.44445 56.5053 7.4359L56.7916 8.7906C56.7004 8.81909 56.5722 8.85185 56.407 8.88889C56.2418 8.92878 56.0409 8.95299 55.8044 8.96154C55.3657 8.97863 54.9811 8.92023 54.6506 8.78633C54.323 8.65242 54.068 8.44445 53.8856 8.16239C53.7033 7.88034 53.6136 7.52422 53.6164 7.09402V0.735044Z" fill="white"/>
<path d="M47.5149 5.07692V8.8718H45.6944V2.30769H47.4294V3.46581H47.5063C47.6516 3.08405 47.8952 2.78205 48.2371 2.55983C48.579 2.33476 48.9935 2.22222 49.4807 2.22222C49.9365 2.22222 50.334 2.32194 50.673 2.52137C51.012 2.7208 51.2756 3.0057 51.4636 3.37607C51.6516 3.74359 51.7457 4.18234 51.7457 4.69231V8.8718H49.9252V5.0171C49.928 4.61539 49.8254 4.302 49.6175 4.07693C49.4095 3.849 49.1232 3.73504 48.7585 3.73504C48.5135 3.73504 48.2969 3.78775 48.1089 3.89316C47.9237 3.99858 47.7784 4.15242 47.673 4.3547C47.5704 4.55413 47.5177 4.79487 47.5149 5.07692Z" fill="white"/>
<path d="M41.4936 9C40.8184 9 40.2372 8.86325 39.75 8.58974C39.2656 8.31339 38.8924 7.92308 38.6303 7.4188C38.3682 6.91168 38.2372 6.31197 38.2372 5.61966C38.2372 4.94445 38.3682 4.35185 38.6303 3.84188C38.8924 3.33191 39.2614 2.93448 39.7372 2.64957C40.2158 2.36467 40.777 2.22222 41.4209 2.22222C41.854 2.22222 42.2571 2.29203 42.6303 2.43163C43.0064 2.56838 43.334 2.77493 43.6132 3.05128C43.8953 3.32764 44.1146 3.67522 44.2713 4.09402C44.428 4.50997 44.5064 4.99715 44.5064 5.55556V6.05556H38.9637V4.92735H42.7927C42.7927 4.66524 42.7357 4.43305 42.6218 4.23077C42.5078 4.02849 42.3497 3.87037 42.1474 3.75641C41.948 3.6396 41.7158 3.5812 41.4508 3.5812C41.1745 3.5812 40.9295 3.6453 40.7158 3.77351C40.505 3.89886 40.3397 4.06838 40.2201 4.28205C40.1004 4.49288 40.0392 4.72792 40.0363 4.98718V6.05983C40.0363 6.38462 40.0961 6.66524 40.2158 6.90171C40.3383 7.13818 40.5107 7.32051 40.7329 7.44872C40.9551 7.57692 41.2186 7.64103 41.5235 7.64103C41.7258 7.64103 41.9109 7.61254 42.079 7.55556C42.2471 7.49858 42.391 7.41311 42.5107 7.29915C42.6303 7.18519 42.7215 7.04559 42.7842 6.88034L44.4679 6.99145C44.3825 7.39601 44.2072 7.74929 43.9423 8.05128C43.6802 8.35043 43.3411 8.58405 42.9252 8.75214C42.5121 8.91738 42.0349 9 41.4936 9Z" fill="white"/>
<path d="M27.5256 8.8718V2.30769H29.2606V3.46581H29.3375C29.4743 3.0812 29.7022 2.77778 30.0213 2.55556C30.3404 2.33334 30.7222 2.22222 31.1666 2.22222C31.6167 2.22222 31.9999 2.33476 32.3162 2.55983C32.6324 2.78205 32.8432 3.08405 32.9487 3.46581H33.017C33.1509 3.08975 33.3931 2.78918 33.7435 2.5641C34.0968 2.33618 34.5142 2.22222 34.9957 2.22222C35.6082 2.22222 36.1054 2.41738 36.4871 2.80769C36.8717 3.19516 37.064 3.74502 37.064 4.45727V8.8718H35.2478V4.81624C35.2478 4.45157 35.1509 4.17806 34.9572 3.99573C34.7635 3.81339 34.5213 3.72222 34.2307 3.72222C33.9002 3.72222 33.6424 3.82764 33.4572 4.03846C33.272 4.24644 33.1794 4.52137 33.1794 4.86325V8.8718H31.4145V4.77778C31.4145 4.45584 31.3219 4.19943 31.1367 4.00855C30.9544 3.81767 30.7136 3.72222 30.4145 3.72222C30.2122 3.72222 30.0299 3.77351 29.8675 3.87607C29.7079 3.97579 29.5811 4.11681 29.4871 4.29915C29.3931 4.47863 29.3461 4.68946 29.3461 4.93163V8.8718H27.5256Z" fill="white"/>
<path d="M16.5491 8.8718V2.30769H18.2841V3.46581H18.3611C18.4978 3.0812 18.7257 2.77778 19.0448 2.55556C19.3639 2.33334 19.7457 2.22222 20.1901 2.22222C20.6403 2.22222 21.0234 2.33476 21.3397 2.55983C21.6559 2.78205 21.8667 3.08405 21.9722 3.46581H22.0405C22.1744 3.08975 22.4166 2.78918 22.767 2.5641C23.1203 2.33618 23.5377 2.22222 24.0192 2.22222C24.6317 2.22222 25.1289 2.41738 25.5106 2.80769C25.8952 3.19516 26.0875 3.74502 26.0875 4.45727V8.8718H24.2713V4.81624C24.2713 4.45157 24.1744 4.17806 23.9807 3.99573C23.787 3.81339 23.5448 3.72222 23.2542 3.72222C22.9237 3.72222 22.6659 3.82764 22.4807 4.03846C22.2955 4.24644 22.2029 4.52137 22.2029 4.86325V8.8718H20.438V4.77778C20.438 4.45584 20.3454 4.19943 20.1602 4.00855C19.9779 3.81767 19.7371 3.72222 19.438 3.72222C19.2357 3.72222 19.0534 3.77351 18.891 3.87607C18.7314 3.97579 18.6046 4.11681 18.5106 4.29915C18.4166 4.47863 18.3696 4.68946 18.3696 4.93163V8.8718H16.5491Z" fill="white"/>
<path d="M12.1346 9C11.4708 9 10.8967 8.85898 10.4124 8.57692C9.9309 8.29202 9.5591 7.89601 9.297 7.38889C9.03489 6.87892 8.90383 6.28775 8.90383 5.61539C8.90383 4.93732 9.03489 4.34473 9.297 3.83761C9.5591 3.32764 9.9309 2.93163 10.4124 2.64957C10.8967 2.36467 11.4708 2.22222 12.1346 2.22222C12.7984 2.22222 13.3711 2.36467 13.8525 2.64957C14.3369 2.93163 14.7101 3.32764 14.9722 3.83761C15.2343 4.34473 15.3654 4.93732 15.3654 5.61539C15.3654 6.28775 15.2343 6.87892 14.9722 7.38889C14.7101 7.89601 14.3369 8.29202 13.8525 8.57692C13.3711 8.85898 12.7984 9 12.1346 9ZM12.1431 7.58974C12.4451 7.58974 12.6973 7.50427 12.8996 7.33333C13.1018 7.15955 13.2543 6.92308 13.3568 6.62393C13.4622 6.32479 13.5149 5.98433 13.5149 5.60257C13.5149 5.2208 13.4622 4.88034 13.3568 4.5812C13.2543 4.28205 13.1018 4.04559 12.8996 3.8718C12.6973 3.69801 12.4451 3.61111 12.1431 3.61111C11.8383 3.61111 11.5819 3.69801 11.3739 3.8718C11.1688 4.04559 11.0135 4.28205 10.9081 4.5812C10.8055 4.88034 10.7543 5.2208 10.7543 5.60257C10.7543 5.98433 10.8055 6.32479 10.9081 6.62393C11.0135 6.92308 11.1688 7.15955 11.3739 7.33333C11.5819 7.50427 11.8383 7.58974 12.1431 7.58974Z" fill="white"/>
<path d="M7.87607 3.18376H6.00427C5.97008 2.94159 5.90028 2.7265 5.79487 2.53846C5.68946 2.34758 5.55413 2.18518 5.38889 2.05128C5.22365 1.91738 5.03276 1.81481 4.81624 1.74359C4.60256 1.67236 4.37037 1.63675 4.11966 1.63675C3.66667 1.63675 3.27208 1.74929 2.9359 1.97436C2.59972 2.19658 2.33903 2.52137 2.15385 2.94872C1.96866 3.37322 1.87607 3.88889 1.87607 4.49573C1.87607 5.11966 1.96866 5.64387 2.15385 6.06837C2.34188 6.49288 2.60399 6.81339 2.94017 7.02991C3.27635 7.24644 3.66524 7.3547 4.10684 7.3547C4.3547 7.3547 4.58404 7.32194 4.79487 7.25641C5.00855 7.19088 5.198 7.09544 5.36325 6.97008C5.52849 6.84188 5.66524 6.68661 5.7735 6.50427C5.88461 6.32194 5.96154 6.11396 6.00427 5.88034L7.87607 5.88889C7.82763 6.2906 7.70655 6.67806 7.51282 7.05128C7.32194 7.42165 7.0641 7.75356 6.73932 8.04701C6.41738 8.33761 6.03276 8.56837 5.58547 8.73931C5.14102 8.90741 4.63818 8.99145 4.07692 8.99145C3.2963 8.99145 2.59829 8.81481 1.98291 8.46154C1.37037 8.10826 0.88604 7.59686 0.529914 6.92735C0.176638 6.25783 0 5.44729 0 4.49573C0 3.54131 0.179487 2.72934 0.538462 2.05983C0.897436 1.39031 1.38462 0.880342 2 0.529915C2.61538 0.176638 3.30769 0 4.07692 0C4.58404 0 5.05413 0.0712251 5.48718 0.213675C5.92308 0.356125 6.30912 0.564102 6.6453 0.837606C6.98148 1.10826 7.25498 1.44017 7.46581 1.83333C7.67949 2.2265 7.81624 2.67664 7.87607 3.18376Z" fill="white"/>
</svg>
