<svg width="32" height="23" viewBox="0 0 32 23" fill="none" xmlns="http://www.w3.org/2000/svg">
<g filter="url(#filter0_d_96_365)">
<path d="M26.3492 12.512C26.9081 12.512 27.3612 12.0589 27.3612 11.5C27.3612 10.9411 26.9081 10.488 26.3492 10.488L26.3492 12.512ZM4.34426 10.7844C3.94906 11.1796 3.94906 11.8204 4.34426 12.2156L10.7844 18.6557C11.1796 19.0509 11.8204 19.0509 12.2156 18.6557C12.6108 18.2605 12.6108 17.6198 12.2156 17.2246L6.49098 11.5L12.2156 5.77542C12.6108 5.38022 12.6108 4.73948 12.2156 4.34428C11.8204 3.94908 11.1796 3.94908 10.7844 4.34428L4.34426 10.7844ZM26.3492 10.488L5.05983 10.488L5.05983 12.512L26.3492 12.512L26.3492 10.488Z" fill="white"/>
</g>
<defs>
<filter id="filter0_d_96_365" x="0" y="0" width="31.4091" height="23" filterUnits="userSpaceOnUse" color-interpolation-filters="sRGB">
<feFlood flood-opacity="0" result="BackgroundImageFix"/>
<feColorMatrix in="SourceAlpha" type="matrix" values="0 0 0 0 0 0 0 0 0 0 0 0 0 0 0 0 0 0 127 0" result="hardAlpha"/>
<feOffset/>
<feGaussianBlur stdDeviation="2"/>
<feComposite in2="hardAlpha" operator="out"/>
<feColorMatrix type="matrix" values="0 0 0 0 0.285714 0 0 0 0 0 0 0 0 0 1 0 0 0 1 0"/>
<feBlend mode="normal" in2="BackgroundImageFix" result="effect1_dropShadow_96_365"/>
<feBlend mode="normal" in="SourceGraphic" in2="effect1_dropShadow_96_365" result="shape"/>
</filter>
</defs>
</svg>
