<svg width="32" height="23" viewBox="0 0 32 23" fill="none" xmlns="http://www.w3.org/2000/svg">
<g filter="url(#filter0_d_161_5806)">
<path fill-rule="evenodd" clip-rule="evenodd" d="M10.7844 18.6557L4.34426 12.2156C3.94906 11.8204 3.94906 11.1796 4.34426 10.7844L10.7844 4.34429C11.1796 3.94909 11.8203 3.94909 12.2155 4.34429C12.6107 4.73949 12.6107 5.38024 12.2155 5.77544L7.50294 10.488L26.3492 10.488C26.9081 10.488 27.3611 10.9411 27.3611 11.5C27.3611 12.0589 26.9081 12.512 26.3492 12.512L7.50294 12.512L12.2155 17.2246C12.6107 17.6198 12.6107 18.2605 12.2155 18.6557C11.8203 19.0509 11.1796 19.0509 10.7844 18.6557Z" fill="white"/>
</g>
<defs>
<filter id="filter0_d_161_5806" x="0" y="0" width="31.409" height="23" filterUnits="userSpaceOnUse" color-interpolation-filters="sRGB">
<feFlood flood-opacity="0" result="BackgroundImageFix"/>
<feColorMatrix in="SourceAlpha" type="matrix" values="0 0 0 0 0 0 0 0 0 0 0 0 0 0 0 0 0 0 127 0" result="hardAlpha"/>
<feOffset/>
<feGaussianBlur stdDeviation="2"/>
<feComposite in2="hardAlpha" operator="out"/>
<feColorMatrix type="matrix" values="0 0 0 0 0.285714 0 0 0 0 0 0 0 0 0 1 0 0 0 1 0"/>
<feBlend mode="normal" in2="BackgroundImageFix" result="effect1_dropShadow_161_5806"/>
<feBlend mode="normal" in="SourceGraphic" in2="effect1_dropShadow_161_5806" result="shape"/>
</filter>
</defs>
</svg>
